<svg xmlns="http://www.w3.org/2000/svg" xmlns:xlink="http://www.w3.org/1999/xlink" width="500" zoomAndPan="magnify" viewBox="0 0 375 374.999991" height="500" preserveAspectRatio="xMidYMid meet" version="1.0"><defs><g/><clipPath id="3228d54764"><path d="M 106 214 L 253.402344 214 L 253.402344 266 L 106 266 Z M 106 214 " clip-rule="nonzero"/></clipPath></defs><path fill="#3f5965" d="M 184.347656 278.796875 C 186.96875 278.015625 189.523438 277.121094 192.007812 276.121094 C 149.015625 284.628906 105.828125 259.152344 93.101562 216.300781 C 80.375 173.449219 102.660156 128.527344 143.328125 112.191406 C 140.699219 112.710938 138.070312 113.351562 135.449219 114.128906 C 89.980469 127.632812 64.066406 175.441406 77.566406 220.914062 C 91.070312 266.382812 138.878906 292.296875 184.347656 278.796875 " fill-opacity="1" fill-rule="nonzero"/><path fill="#38b2ac" d="M 77.933594 256.996094 C 80.214844 258.785156 82.554688 260.441406 84.941406 261.976562 C 51.222656 230.035156 46.753906 177.078125 75.984375 139.796875 C 105.21875 102.515625 157.710938 94.222656 196.773438 119.351562 C 194.710938 117.398438 192.550781 115.519531 190.269531 113.734375 C 150.707031 82.714844 93.492188 89.636719 62.46875 129.199219 C 31.449219 168.757812 38.375 225.976562 77.933594 256.996094 " fill-opacity="1" fill-rule="nonzero"/><g clip-path="url(#3228d54764)"><path fill="#38b2ac" d="M 162.582031 252.839844 C 139.121094 246.53125 119.824219 232.464844 106.703125 214.148438 C 117.046875 236.992188 137.15625 255.195312 163.265625 262.210938 C 197.367188 271.378906 232.183594 258.902344 253.136719 233.191406 C 228.773438 253.265625 195.390625 261.65625 162.582031 252.839844 " fill-opacity="1" fill-rule="nonzero"/></g><g fill="#3f5965" fill-opacity="1"><g transform="translate(95.450451, 205.902796)"><g><path d="M 25.203125 -16.1875 L 10.875 -16.1875 L 9.140625 -6.1875 L 25.96875 -6.1875 L 24.890625 0 L 0.53125 0 L 7.03125 -37.359375 L 31.328125 -37.359375 L 30.21875 -31.125 L 13.46875 -31.125 L 11.90625 -22.21875 L 26.28125 -22.21875 Z M 25.203125 -16.1875 "/></g></g></g><g fill="#3f5965" fill-opacity="1"><g transform="translate(121.890013, 205.902796)"><g><path d="M 16.140625 0 C 15.921875 -0.695312 15.828125 -1.535156 15.859375 -2.515625 C 13.765625 -0.429688 11.40625 0.578125 8.78125 0.515625 C 6.34375 0.484375 4.320312 -0.304688 2.71875 -1.859375 C 1.125 -3.410156 0.378906 -5.320312 0.484375 -7.59375 C 0.609375 -10.625 1.878906 -12.945312 4.296875 -14.5625 C 6.710938 -16.175781 9.957031 -16.984375 14.03125 -16.984375 L 17.421875 -16.9375 L 17.78125 -18.609375 C 17.882812 -19.171875 17.910156 -19.707031 17.859375 -20.21875 C 17.773438 -21.019531 17.472656 -21.644531 16.953125 -22.09375 C 16.429688 -22.550781 15.738281 -22.789062 14.875 -22.8125 C 13.75 -22.84375 12.789062 -22.5625 12 -21.96875 C 11.21875 -21.382812 10.71875 -20.535156 10.5 -19.421875 L 3.234375 -19.390625 C 3.347656 -22.046875 4.5625 -24.195312 6.875 -25.84375 C 9.195312 -27.5 12.0625 -28.3125 15.46875 -28.28125 C 18.613281 -28.207031 21.078125 -27.269531 22.859375 -25.46875 C 24.640625 -23.664062 25.382812 -21.34375 25.09375 -18.5 L 22.96875 -5.203125 L 22.828125 -3.5625 C 22.796875 -2.351562 22.941406 -1.328125 23.265625 -0.484375 L 23.25 0 Z M 10.578125 -5.109375 C 12.660156 -5.035156 14.476562 -5.941406 16.03125 -7.828125 L 16.9375 -12.625 L 14.421875 -12.65625 C 11.753906 -12.582031 9.828125 -11.769531 8.640625 -10.21875 C 8.210938 -9.644531 7.945312 -8.953125 7.84375 -8.140625 C 7.707031 -7.210938 7.898438 -6.476562 8.421875 -5.9375 C 8.953125 -5.394531 9.671875 -5.117188 10.578125 -5.109375 Z M 10.578125 -5.109375 "/></g></g></g><g fill="#3f5965" fill-opacity="1"><g transform="translate(146.995694, 205.902796)"><g><path d="M 16.171875 -7.828125 C 16.441406 -9.191406 15.488281 -10.179688 13.3125 -10.796875 L 10.984375 -11.390625 C 5.453125 -12.910156 2.765625 -15.597656 2.921875 -19.453125 C 3.003906 -22.066406 4.160156 -24.195312 6.390625 -25.84375 C 8.628906 -27.5 11.320312 -28.3125 14.46875 -28.28125 C 17.601562 -28.238281 20.132812 -27.40625 22.0625 -25.78125 C 24 -24.15625 24.984375 -21.992188 25.015625 -19.296875 L 17.828125 -19.3125 C 17.867188 -21.695312 16.691406 -22.90625 14.296875 -22.9375 C 13.160156 -22.9375 12.175781 -22.65625 11.34375 -22.09375 C 10.519531 -21.53125 10.015625 -20.769531 9.828125 -19.8125 C 9.566406 -18.4375 10.601562 -17.46875 12.9375 -16.90625 L 13.953125 -16.671875 C 16.316406 -16.109375 18.125 -15.460938 19.375 -14.734375 C 20.625 -14.015625 21.582031 -13.113281 22.25 -12.03125 C 22.925781 -10.957031 23.238281 -9.664062 23.1875 -8.15625 C 23.144531 -6.394531 22.578125 -4.851562 21.484375 -3.53125 C 20.398438 -2.21875 18.910156 -1.203125 17.015625 -0.484375 C 15.128906 0.234375 13.144531 0.566406 11.0625 0.515625 C 7.976562 0.484375 5.410156 -0.398438 3.359375 -2.140625 C 1.304688 -3.878906 0.265625 -6.125 0.234375 -8.875 L 7.0625 -8.828125 C 7.125 -6.171875 8.539062 -4.828125 11.3125 -4.796875 C 12.644531 -4.796875 13.742188 -5.066406 14.609375 -5.609375 C 15.472656 -6.160156 15.992188 -6.898438 16.171875 -7.828125 Z M 16.171875 -7.828125 "/></g></g></g><g fill="#3f5965" fill-opacity="1"><g transform="translate(170.972703, 205.902796)"><g><path d="M 11.859375 -10.578125 L 19.78125 -27.765625 L 27.84375 -27.765625 L 11.59375 4.1875 C 10.4375 6.625 9.070312 8.414062 7.5 9.5625 C 5.9375 10.71875 4.128906 11.296875 2.078125 11.296875 C 1.273438 11.296875 0.113281 11.113281 -1.40625 10.75 L -0.875 5.109375 L 0.125 5.15625 C 2.488281 5.226562 4.21875 4.363281 5.3125 2.5625 L 6.90625 -0.390625 L 2.359375 -27.765625 L 9.859375 -27.765625 Z M 11.859375 -10.578125 "/></g></g></g><g fill="#38b2ac" fill-opacity="1"><g transform="translate(203.819492, 204.749987)"><g><path d="M 25.203125 -16.1875 L 10.875 -16.1875 L 9.140625 -6.1875 L 25.96875 -6.1875 L 24.890625 0 L 0.53125 0 L 7.03125 -37.359375 L 31.328125 -37.359375 L 30.21875 -31.125 L 13.46875 -31.125 L 11.90625 -22.21875 L 26.28125 -22.21875 Z M 25.203125 -16.1875 "/></g></g></g><g fill="#38b2ac" fill-opacity="1"><g transform="translate(230.25947, 204.749987)"><g><path d="M 11.515625 -27.78125 L 10.90625 -24.5 C 13.125 -27.082031 15.816406 -28.34375 18.984375 -28.28125 C 21.597656 -28.226562 23.53125 -27.269531 24.78125 -25.40625 C 26.03125 -23.539062 26.484375 -20.957031 26.140625 -17.65625 L 23.21875 0 L 15.984375 0 L 18.96875 -17.734375 C 19.050781 -18.398438 19.066406 -19.003906 19.015625 -19.546875 C 18.785156 -21.296875 17.691406 -22.195312 15.734375 -22.25 C 13.828125 -22.3125 12.125 -21.429688 10.625 -19.609375 L 7.15625 0 L -0.078125 0 L 4.75 -27.765625 Z M 11.515625 -27.78125 "/></g></g></g><g fill="#38b2ac" fill-opacity="1"><g transform="translate(256.596841, 204.749987)"><g><path d="M 1.46875 -13.90625 C 1.976562 -18.195312 3.375 -21.679688 5.65625 -24.359375 C 7.9375 -27.035156 10.816406 -28.347656 14.296875 -28.296875 C 17.253906 -28.234375 19.457031 -27.164062 20.90625 -25.09375 L 21.859375 -27.78125 L 28.5 -27.765625 L 23.96875 -0.953125 C 23.46875 2.742188 21.890625 5.671875 19.234375 7.828125 C 16.585938 9.984375 13.304688 11.023438 9.390625 10.953125 C 7.472656 10.921875 5.640625 10.503906 3.890625 9.703125 C 2.148438 8.910156 0.71875 7.820312 -0.40625 6.4375 L 3.1875 2.03125 C 4.789062 4.0625 6.804688 5.113281 9.234375 5.1875 C 11.117188 5.25 12.726562 4.753906 14.0625 3.703125 C 15.394531 2.648438 16.300781 1.164062 16.78125 -0.75 L 17.1875 -2.40625 C 15.164062 -0.394531 12.898438 0.578125 10.390625 0.515625 C 7.691406 0.484375 5.546875 -0.519531 3.953125 -2.5 C 2.359375 -4.476562 1.484375 -7.050781 1.328125 -10.21875 C 1.273438 -11.257812 1.320312 -12.488281 1.46875 -13.90625 Z M 8.5625 -10.875 C 8.5625 -9.269531 8.898438 -7.984375 9.578125 -7.015625 C 10.253906 -6.046875 11.234375 -5.535156 12.515625 -5.484375 C 14.484375 -5.421875 16.226562 -6.257812 17.75 -8 L 19.90625 -19.75 C 19.175781 -21.363281 17.816406 -22.203125 15.828125 -22.265625 C 13.984375 -22.316406 12.421875 -21.570312 11.140625 -20.03125 C 9.859375 -18.5 9.050781 -16.457031 8.71875 -13.90625 C 8.601562 -12.65625 8.550781 -11.644531 8.5625 -10.875 Z M 8.5625 -10.875 "/></g></g></g><g fill="#38b2ac" fill-opacity="1"><g transform="translate(283.472895, 204.749987)"><g><path d="M 7.71875 0 L 0.4375 0 L 7.28125 -39.40625 L 14.546875 -39.40625 Z M 7.71875 0 "/></g></g></g><g fill="#38b2ac" fill-opacity="1"><g transform="translate(294.778238, 204.749987)"><g><path d="M 7.71875 0 L 0.4375 0 L 5.265625 -27.765625 L 12.546875 -27.765625 Z M 6.109375 -34.8125 C 6.078125 -35.957031 6.453125 -36.90625 7.234375 -37.65625 C 8.023438 -38.414062 8.972656 -38.796875 10.078125 -38.796875 C 11.171875 -38.828125 12.117188 -38.488281 12.921875 -37.78125 C 13.734375 -37.082031 14.15625 -36.179688 14.1875 -35.078125 C 14.21875 -34.015625 13.859375 -33.085938 13.109375 -32.296875 C 12.367188 -31.515625 11.40625 -31.109375 10.21875 -31.078125 C 9.132812 -31.035156 8.1875 -31.359375 7.375 -32.046875 C 6.5625 -32.734375 6.140625 -33.65625 6.109375 -34.8125 Z M 6.109375 -34.8125 "/></g></g></g><g fill="#38b2ac" fill-opacity="1"><g transform="translate(306.08358, 204.749987)"><g><path d="M 16.171875 -7.828125 C 16.441406 -9.191406 15.488281 -10.179688 13.3125 -10.796875 L 10.984375 -11.390625 C 5.453125 -12.910156 2.765625 -15.597656 2.921875 -19.453125 C 3.003906 -22.066406 4.160156 -24.195312 6.390625 -25.84375 C 8.628906 -27.5 11.320312 -28.3125 14.46875 -28.28125 C 17.601562 -28.238281 20.132812 -27.40625 22.0625 -25.78125 C 24 -24.15625 24.984375 -21.992188 25.015625 -19.296875 L 17.828125 -19.3125 C 17.867188 -21.695312 16.691406 -22.90625 14.296875 -22.9375 C 13.160156 -22.9375 12.175781 -22.65625 11.34375 -22.09375 C 10.519531 -21.53125 10.015625 -20.769531 9.828125 -19.8125 C 9.566406 -18.4375 10.601562 -17.46875 12.9375 -16.90625 L 13.953125 -16.671875 C 16.316406 -16.109375 18.125 -15.460938 19.375 -14.734375 C 20.625 -14.015625 21.582031 -13.113281 22.25 -12.03125 C 22.925781 -10.957031 23.238281 -9.664062 23.1875 -8.15625 C 23.144531 -6.394531 22.578125 -4.851562 21.484375 -3.53125 C 20.398438 -2.21875 18.910156 -1.203125 17.015625 -0.484375 C 15.128906 0.234375 13.144531 0.566406 11.0625 0.515625 C 7.976562 0.484375 5.410156 -0.398438 3.359375 -2.140625 C 1.304688 -3.878906 0.265625 -6.125 0.234375 -8.875 L 7.0625 -8.828125 C 7.125 -6.171875 8.539062 -4.828125 11.3125 -4.796875 C 12.644531 -4.796875 13.742188 -5.066406 14.609375 -5.609375 C 15.472656 -6.160156 15.992188 -6.898438 16.171875 -7.828125 Z M 16.171875 -7.828125 "/></g></g></g><g fill="#38b2ac" fill-opacity="1"><g transform="translate(330.060977, 204.749987)"><g><path d="M 11.109375 -24.6875 C 13.285156 -27.113281 15.789062 -28.3125 18.625 -28.28125 C 21.382812 -28.207031 23.40625 -27.21875 24.6875 -25.3125 C 25.976562 -23.40625 26.460938 -20.800781 26.140625 -17.5 L 23.21875 0 L 15.984375 0 L 18.9375 -17.578125 C 19.019531 -18.242188 19.035156 -18.859375 18.984375 -19.421875 C 18.816406 -21.265625 17.738281 -22.210938 15.75 -22.265625 C 13.800781 -22.335938 12.09375 -21.5 10.625 -19.75 L 7.140625 0 L -0.109375 0 L 6.71875 -39.40625 L 13.984375 -39.40625 Z M 11.109375 -24.6875 "/></g></g></g></svg>