<svg xmlns="http://www.w3.org/2000/svg" xmlns:xlink="http://www.w3.org/1999/xlink" width="500" zoomAndPan="magnify" viewBox="0 0 375 374.999991" height="500" preserveAspectRatio="xMidYMid meet" version="1.0"><defs><clipPath id="fba5666c67"><path d="M 161.898438 131.25 L 274.398438 131.25 L 274.398438 243.75 L 161.898438 243.75 Z M 161.898438 131.25 " clip-rule="nonzero"/></clipPath><clipPath id="08496ceece"><path d="M 218.148438 131.25 C 187.082031 131.25 161.898438 156.433594 161.898438 187.5 C 161.898438 218.566406 187.082031 243.75 218.148438 243.75 C 249.214844 243.75 274.398438 218.566406 274.398438 187.5 C 274.398438 156.433594 249.214844 131.25 218.148438 131.25 Z M 218.148438 131.25 " clip-rule="nonzero"/></clipPath></defs><path fill="#3f5965" d="M 258.617188 341.875 C 263.046875 340.558594 267.363281 339.042969 271.566406 337.355469 C 198.871094 351.738281 125.84375 308.660156 104.324219 236.203125 C 82.808594 163.746094 120.492188 87.789062 189.25 60.164062 C 184.808594 61.042969 180.363281 62.128906 175.933594 63.441406 C 99.046875 86.273438 55.226562 167.113281 78.058594 244 C 100.890625 320.886719 181.730469 364.707031 258.617188 341.875 " fill-opacity="1" fill-rule="nonzero"/><path fill="#289db9" d="M 78.679688 305.015625 C 82.535156 308.039062 86.492188 310.839844 90.53125 313.433594 C 33.511719 259.425781 25.953125 169.882812 75.382812 106.839844 C 124.8125 43.804688 213.574219 29.78125 279.625 72.273438 C 276.140625 68.972656 272.480469 65.796875 268.625 62.773438 C 201.734375 10.320312 104.984375 22.03125 52.53125 88.921875 C 0.0820312 155.816406 11.785156 252.5625 78.679688 305.015625 " fill-opacity="1" fill-rule="nonzero"/><path fill="#289db9" d="M 221.808594 297.984375 C 182.140625 287.320312 149.511719 263.539062 127.324219 232.566406 C 144.816406 271.191406 178.820312 301.96875 222.964844 313.835938 C 280.628906 329.335938 339.5 308.238281 374.929688 264.761719 C 333.730469 298.707031 277.285156 312.894531 221.808594 297.984375 " fill-opacity="1" fill-rule="nonzero"/><g clip-path="url(#fba5666c67)"><g clip-path="url(#08496ceece)"><path fill="#289db9" d="M 161.898438 131.25 L 274.398438 131.25 L 274.398438 243.75 L 161.898438 243.75 Z M 161.898438 131.25 " fill-opacity="1" fill-rule="nonzero"/></g></g></svg>